<mxfile host="app.diagrams.net" modified="2023-06-26T14:09:35.864Z" agent="Mozilla/5.0 (Macintosh; Intel Mac OS X 10.15; rv:109.0) Gecko/20100101 Firefox/114.0" etag="SAJcDlHF3G_pdcnGrof_" version="21.5.0" type="github">
  <diagram name="Page-1" id="iJaSMaVpHQGALXnixF5b">
    <mxGraphModel dx="1262" dy="2502" grid="1" gridSize="10" guides="1" tooltips="1" connect="1" arrows="1" fold="1" page="1" pageScale="1" pageWidth="827" pageHeight="1169" math="0" shadow="0">
      <root>
        <mxCell id="0" />
        <mxCell id="1" parent="0" />
        <mxCell id="U0XQma4ryhpkUwMsfx8T-19" value="" style="verticalLabelPosition=bottom;verticalAlign=top;html=1;shape=mxgraph.basic.diag_round_rect;dx=6;whiteSpace=wrap;fillColor=#f8cecc;strokeColor=#b85450;" vertex="1" parent="1">
          <mxGeometry x="3060" y="795.75" width="890" height="174.25" as="geometry" />
        </mxCell>
        <mxCell id="1E4NdVVgAduAR2HttTV0-28" value="&lt;h2 style=&quot;font-size: 81px;&quot; align=&quot;center&quot;&gt;&lt;font style=&quot;font-size: 81px;&quot;&gt;BERT Architecture&lt;/font&gt;&lt;/h2&gt;" style="rounded=0;whiteSpace=wrap;html=1;fillColor=#dae8fc;strokeColor=#6c8ebf;align=center;" parent="1" vertex="1">
          <mxGeometry x="1620" y="290" width="2330" height="490" as="geometry" />
        </mxCell>
        <mxCell id="pajMBO5-fDyzua4MGGLV-39" value="" style="rounded=0;whiteSpace=wrap;html=1;fillColor=#dae8fc;flipH=1;strokeColor=#6c8ebf;flipV=0;" parent="1" vertex="1">
          <mxGeometry x="1620" y="799" width="1420" height="170" as="geometry" />
        </mxCell>
        <mxCell id="pajMBO5-fDyzua4MGGLV-40" value="&lt;font style=&quot;font-size: 20px;&quot; color=&quot;#ffffff&quot;&gt;&#39;P55&#39;&lt;/font&gt;" style="ellipse;whiteSpace=wrap;html=1;fillColor=#9CC7FF;flipH=1;strokeColor=#006EAF;" parent="1" vertex="1">
          <mxGeometry x="2023" y="829" width="100" height="100" as="geometry" />
        </mxCell>
        <mxCell id="pajMBO5-fDyzua4MGGLV-41" value="&lt;font style=&quot;font-size: 20px;&quot;&gt;&#39;Z38&#39;&lt;/font&gt;" style="ellipse;whiteSpace=wrap;html=1;fillColor=#9CC7FF;flipH=1;strokeColor=#006EAF;fontColor=#ffffff;" parent="1" vertex="1">
          <mxGeometry x="1770" y="830" width="100" height="100" as="geometry" />
        </mxCell>
        <mxCell id="pajMBO5-fDyzua4MGGLV-42" value="&lt;font style=&quot;font-size: 20px;&quot; color=&quot;#ffffff&quot;&gt;&#39;P70&#39;&lt;/font&gt;" style="ellipse;whiteSpace=wrap;html=1;fillColor=#9CC7FF;flipH=1;strokeColor=#006EAF;" parent="1" vertex="1">
          <mxGeometry x="1896" y="831" width="100" height="100" as="geometry" />
        </mxCell>
        <mxCell id="pajMBO5-fDyzua4MGGLV-43" value="&lt;font style=&quot;font-size: 20px;&quot; color=&quot;#ffffff&quot;&gt;&#39;P00&#39;&lt;/font&gt;" style="ellipse;whiteSpace=wrap;html=1;fillColor=#9CC7FF;flipH=1;strokeColor=#006EAF;" parent="1" vertex="1">
          <mxGeometry x="2150" y="831" width="100" height="100" as="geometry" />
        </mxCell>
        <mxCell id="pajMBO5-fDyzua4MGGLV-44" value="" style="rhombus;whiteSpace=wrap;html=1;flipH=1;direction=north;fillColor=#fff2cc;strokeColor=#d6b656;" parent="1" vertex="1">
          <mxGeometry x="2276" y="832" width="100" height="100" as="geometry" />
        </mxCell>
        <mxCell id="pajMBO5-fDyzua4MGGLV-45" value="&lt;font style=&quot;font-size: 20px;&quot; color=&quot;#ffffff&quot;&gt;&#39;E86&#39;&lt;/font&gt;" style="ellipse;whiteSpace=wrap;html=1;fillColor=#9CC7FF;flipH=1;strokeColor=#006EAF;" parent="1" vertex="1">
          <mxGeometry x="2403" y="833" width="100" height="100" as="geometry" />
        </mxCell>
        <mxCell id="pajMBO5-fDyzua4MGGLV-46" value="&lt;font style=&quot;font-size: 20px;&quot; color=&quot;#ffffff&quot;&gt;&#39;A02&#39;&lt;/font&gt;" style="ellipse;whiteSpace=wrap;html=1;fillColor=#9CC7FF;flipH=1;strokeColor=#006EAF;" parent="1" vertex="1">
          <mxGeometry x="2530" y="834" width="100" height="100" as="geometry" />
        </mxCell>
        <mxCell id="pajMBO5-fDyzua4MGGLV-47" value="&lt;font style=&quot;font-size: 20px;&quot; color=&quot;#ffffff&quot;&gt;&#39;N39&#39;&lt;/font&gt;" style="ellipse;whiteSpace=wrap;html=1;fillColor=#9CC7FF;flipH=1;strokeColor=#006EAF;" parent="1" vertex="1">
          <mxGeometry x="2657" y="834" width="100" height="100" as="geometry" />
        </mxCell>
        <mxCell id="pajMBO5-fDyzua4MGGLV-48" value="" style="rhombus;whiteSpace=wrap;html=1;flipH=1;fillColor=#fff2cc;strokeColor=#d6b656;" parent="1" vertex="1">
          <mxGeometry x="2783" y="835" width="100" height="100" as="geometry" />
        </mxCell>
        <mxCell id="pajMBO5-fDyzua4MGGLV-49" value="&lt;font style=&quot;font-size: 20px;&quot; color=&quot;#ffffff&quot;&gt;&#39;J21&#39;&lt;/font&gt;" style="ellipse;whiteSpace=wrap;html=1;fillColor=#9CC7FF;flipH=1;strokeColor=#006EAF;" parent="1" vertex="1">
          <mxGeometry x="2910" y="838" width="100" height="100" as="geometry" />
        </mxCell>
        <mxCell id="pajMBO5-fDyzua4MGGLV-51" value="" style="whiteSpace=wrap;html=1;aspect=fixed;direction=east;flipH=1;flipV=1;strokeColor=#d6b656;fillColor=#fff2cc;" parent="1" vertex="1">
          <mxGeometry x="1650" y="840" width="86" height="86" as="geometry" />
        </mxCell>
        <mxCell id="pajMBO5-fDyzua4MGGLV-158" value="" style="shape=hexagon;perimeter=hexagonPerimeter2;whiteSpace=wrap;html=1;fixedSize=1;" parent="1" vertex="1">
          <mxGeometry x="1760" y="670" width="110" height="70" as="geometry" />
        </mxCell>
        <mxCell id="pajMBO5-fDyzua4MGGLV-159" value="" style="shape=hexagon;perimeter=hexagonPerimeter2;whiteSpace=wrap;html=1;fixedSize=1;" parent="1" vertex="1">
          <mxGeometry x="2522" y="670" width="110" height="70" as="geometry" />
        </mxCell>
        <mxCell id="pajMBO5-fDyzua4MGGLV-160" value="" style="shape=hexagon;perimeter=hexagonPerimeter2;whiteSpace=wrap;html=1;fixedSize=1;" parent="1" vertex="1">
          <mxGeometry x="2390" y="670" width="110" height="70" as="geometry" />
        </mxCell>
        <mxCell id="pajMBO5-fDyzua4MGGLV-161" value="" style="shape=hexagon;perimeter=hexagonPerimeter2;whiteSpace=wrap;html=1;fixedSize=1;" parent="1" vertex="1">
          <mxGeometry x="2151" y="670" width="110" height="70" as="geometry" />
        </mxCell>
        <mxCell id="pajMBO5-fDyzua4MGGLV-162" value="" style="shape=hexagon;perimeter=hexagonPerimeter2;whiteSpace=wrap;html=1;fixedSize=1;" parent="1" vertex="1">
          <mxGeometry x="2019" y="670" width="110" height="70" as="geometry" />
        </mxCell>
        <mxCell id="pajMBO5-fDyzua4MGGLV-163" value="" style="shape=hexagon;perimeter=hexagonPerimeter2;whiteSpace=wrap;html=1;fixedSize=1;" parent="1" vertex="1">
          <mxGeometry x="1887" y="670" width="110" height="70" as="geometry" />
        </mxCell>
        <mxCell id="pajMBO5-fDyzua4MGGLV-164" value="" style="shape=hexagon;perimeter=hexagonPerimeter2;whiteSpace=wrap;html=1;fixedSize=1;" parent="1" vertex="1">
          <mxGeometry x="2903" y="670" width="110" height="70" as="geometry" />
        </mxCell>
        <mxCell id="pajMBO5-fDyzua4MGGLV-165" value="" style="shape=hexagon;perimeter=hexagonPerimeter2;whiteSpace=wrap;html=1;fixedSize=1;" parent="1" vertex="1">
          <mxGeometry x="2659" y="670" width="110" height="70" as="geometry" />
        </mxCell>
        <mxCell id="pajMBO5-fDyzua4MGGLV-166" value="&lt;font style=&quot;font-size: 18px;&quot;&gt;E&lt;sub&gt;1&lt;/sub&gt;&lt;/font&gt;" style="text;html=1;strokeColor=none;fillColor=none;align=center;verticalAlign=middle;whiteSpace=wrap;rounded=0;" parent="1" vertex="1">
          <mxGeometry x="1785" y="690" width="60" height="30" as="geometry" />
        </mxCell>
        <mxCell id="pajMBO5-fDyzua4MGGLV-167" value="&lt;font style=&quot;font-size: 18px;&quot;&gt;E&lt;sub&gt;1&lt;/sub&gt;&lt;sup&gt;&#39;&lt;/sup&gt;&lt;/font&gt;" style="text;html=1;strokeColor=none;fillColor=none;align=center;verticalAlign=middle;whiteSpace=wrap;rounded=0;" parent="1" vertex="1">
          <mxGeometry x="2415" y="690" width="60" height="30" as="geometry" />
        </mxCell>
        <mxCell id="pajMBO5-fDyzua4MGGLV-168" value="&lt;font style=&quot;font-size: 18px;&quot;&gt;E&lt;sub&gt;4&lt;/sub&gt;&lt;/font&gt;" style="text;html=1;strokeColor=none;fillColor=none;align=center;verticalAlign=middle;whiteSpace=wrap;rounded=0;" parent="1" vertex="1">
          <mxGeometry x="2176" y="690" width="60" height="30" as="geometry" />
        </mxCell>
        <mxCell id="pajMBO5-fDyzua4MGGLV-169" value="&lt;font style=&quot;font-size: 18px;&quot;&gt;E&lt;sub&gt;3&lt;/sub&gt;&lt;/font&gt;" style="text;html=1;strokeColor=none;fillColor=none;align=center;verticalAlign=middle;whiteSpace=wrap;rounded=0;" parent="1" vertex="1">
          <mxGeometry x="2044" y="690" width="60" height="30" as="geometry" />
        </mxCell>
        <mxCell id="pajMBO5-fDyzua4MGGLV-170" value="&lt;font style=&quot;font-size: 18px;&quot;&gt;E&lt;sub&gt;2&lt;/sub&gt;&lt;/font&gt;" style="text;html=1;strokeColor=none;fillColor=none;align=center;verticalAlign=middle;whiteSpace=wrap;rounded=0;" parent="1" vertex="1">
          <mxGeometry x="1912" y="690" width="60" height="30" as="geometry" />
        </mxCell>
        <mxCell id="pajMBO5-fDyzua4MGGLV-171" value="&lt;font style=&quot;font-size: 18px;&quot;&gt;E&lt;sup&gt;&#39;&#39;&lt;/sup&gt;&lt;sub&gt;1&lt;/sub&gt;&lt;/font&gt;" style="text;html=1;strokeColor=none;fillColor=none;align=center;verticalAlign=middle;whiteSpace=wrap;rounded=0;" parent="1" vertex="1">
          <mxGeometry x="2933" y="690" width="60" height="30" as="geometry" />
        </mxCell>
        <mxCell id="pajMBO5-fDyzua4MGGLV-172" value="&lt;font style=&quot;font-size: 18px;&quot;&gt;E&lt;sub&gt;3&lt;/sub&gt;&lt;sup&gt;&#39;&lt;/sup&gt;&lt;/font&gt;" style="text;html=1;strokeColor=none;fillColor=none;align=center;verticalAlign=middle;whiteSpace=wrap;rounded=0;" parent="1" vertex="1">
          <mxGeometry x="2684" y="690" width="60" height="30" as="geometry" />
        </mxCell>
        <mxCell id="pajMBO5-fDyzua4MGGLV-173" value="&lt;font style=&quot;font-size: 18px;&quot;&gt;E&lt;sub&gt;2&lt;/sub&gt;&lt;sup&gt;&#39;&lt;/sup&gt;&lt;/font&gt;" style="text;html=1;strokeColor=none;fillColor=none;align=center;verticalAlign=middle;whiteSpace=wrap;rounded=0;" parent="1" vertex="1">
          <mxGeometry x="2547" y="690" width="60" height="30" as="geometry" />
        </mxCell>
        <mxCell id="pajMBO5-fDyzua4MGGLV-174" value="" style="shape=singleArrow;direction=north;whiteSpace=wrap;html=1;fillColor=#f5f5f5;fontColor=#333333;strokeColor=#666666;" parent="1" vertex="1">
          <mxGeometry x="1808.75" y="750" width="22.5" height="72.5" as="geometry" />
        </mxCell>
        <mxCell id="pajMBO5-fDyzua4MGGLV-175" value="" style="shape=singleArrow;direction=north;whiteSpace=wrap;html=1;fillColor=#f5f5f5;fontColor=#333333;strokeColor=#666666;" parent="1" vertex="1">
          <mxGeometry x="2443.75" y="750" width="22.5" height="72.5" as="geometry" />
        </mxCell>
        <mxCell id="pajMBO5-fDyzua4MGGLV-176" value="" style="shape=singleArrow;direction=north;whiteSpace=wrap;html=1;fillColor=#f5f5f5;fontColor=#333333;strokeColor=#666666;" parent="1" vertex="1">
          <mxGeometry x="2194.75" y="750" width="22.5" height="72.5" as="geometry" />
        </mxCell>
        <mxCell id="pajMBO5-fDyzua4MGGLV-177" value="" style="shape=singleArrow;direction=north;whiteSpace=wrap;html=1;fillColor=#f5f5f5;fontColor=#333333;strokeColor=#666666;" parent="1" vertex="1">
          <mxGeometry x="2062.75" y="750" width="22.5" height="72.5" as="geometry" />
        </mxCell>
        <mxCell id="pajMBO5-fDyzua4MGGLV-178" value="" style="shape=singleArrow;direction=north;whiteSpace=wrap;html=1;fillColor=#f5f5f5;fontColor=#333333;strokeColor=#666666;" parent="1" vertex="1">
          <mxGeometry x="1935.75" y="750" width="22.5" height="72.5" as="geometry" />
        </mxCell>
        <mxCell id="pajMBO5-fDyzua4MGGLV-179" value="" style="shape=singleArrow;direction=north;whiteSpace=wrap;html=1;fillColor=#f5f5f5;fontColor=#333333;strokeColor=#666666;" parent="1" vertex="1">
          <mxGeometry x="2951.75" y="750" width="22.5" height="72.5" as="geometry" />
        </mxCell>
        <mxCell id="pajMBO5-fDyzua4MGGLV-180" value="" style="shape=singleArrow;direction=north;whiteSpace=wrap;html=1;fillColor=#f5f5f5;fontColor=#333333;strokeColor=#666666;" parent="1" vertex="1">
          <mxGeometry x="2697.75" y="750" width="22.5" height="72.5" as="geometry" />
        </mxCell>
        <mxCell id="pajMBO5-fDyzua4MGGLV-181" value="" style="shape=singleArrow;direction=north;whiteSpace=wrap;html=1;fillColor=#f5f5f5;fontColor=#333333;strokeColor=#666666;" parent="1" vertex="1">
          <mxGeometry x="2565.75" y="750" width="22.5" height="72.5" as="geometry" />
        </mxCell>
        <mxCell id="pajMBO5-fDyzua4MGGLV-209" value="" style="endArrow=classic;html=1;rounded=0;strokeWidth=2;dashed=1;" parent="1" edge="1">
          <mxGeometry width="50" height="50" relative="1" as="geometry">
            <mxPoint x="1573" y="790" as="sourcePoint" />
            <mxPoint x="1803" y="790" as="targetPoint" />
          </mxGeometry>
        </mxCell>
        <mxCell id="pajMBO5-fDyzua4MGGLV-229" value="&lt;div style=&quot;font-size: 29px;&quot;&gt;&lt;b&gt;&lt;font style=&quot;font-size: 29px;&quot;&gt;Linear transformation&lt;/font&gt;&lt;/b&gt;&lt;/div&gt;&lt;div style=&quot;font-size: 29px;&quot;&gt;&lt;font style=&quot;font-size: 29px;&quot;&gt;&lt;b&gt;nn.linear (288,2045)&lt;br&gt;&lt;/b&gt; &lt;/font&gt;&lt;/div&gt;" style="rounded=1;whiteSpace=wrap;html=1;fillColor=#DAE8FC;" parent="1" vertex="1">
          <mxGeometry x="2677" y="30" width="435.25" height="172" as="geometry" />
        </mxCell>
        <mxCell id="pajMBO5-fDyzua4MGGLV-251" value="&lt;p style=&quot;line-height: 0%;&quot;&gt;&lt;br&gt;&lt;/p&gt;" style="rounded=0;whiteSpace=wrap;html=1;fillColor=#DAE8FC;" parent="1" vertex="1">
          <mxGeometry x="2210" y="-1023" width="1370" height="560" as="geometry" />
        </mxCell>
        <mxCell id="qL8Y19arw2ljMX_Rw4NP-1" value="&lt;font style=&quot;font-size: 23px;&quot;&gt;&lt;b&gt;&lt;font style=&quot;font-size: 23px;&quot;&gt;(0.016, &lt;font style=&quot;font-size: 23px;&quot; color=&quot;#ff0000&quot;&gt;0.055&lt;/font&gt;, &lt;/font&gt;&lt;font style=&quot;font-size: 23px;&quot;&gt;&lt;font style=&quot;font-size: 23px;&quot; color=&quot;#ff0000&quot;&gt;0.179&lt;/font&gt;&lt;/font&gt;&lt;font style=&quot;font-size: 23px;&quot;&gt;, ..., &lt;font color=&quot;#ff0000&quot;&gt;0.122&lt;/font&gt;, ...) ∈ ℝ&lt;sup&gt;2045&lt;/sup&gt;&lt;/font&gt;&lt;/b&gt;&lt;/font&gt;" style="rounded=1;whiteSpace=wrap;html=1;" parent="1" vertex="1">
          <mxGeometry x="2612" y="-874" width="590" height="80" as="geometry" />
        </mxCell>
        <mxCell id="qL8Y19arw2ljMX_Rw4NP-11" value="&lt;p style=&quot;line-height: 0%; font-size: 38px;&quot;&gt;&lt;font style=&quot;font-size: 38px;&quot;&gt;&lt;b&gt;&lt;font style=&quot;font-size: 38px;&quot;&gt;Next Visit Prediction&lt;/font&gt;&lt;/b&gt;&lt;/font&gt;&lt;/p&gt;&lt;p style=&quot;line-height: 0%; font-size: 38px;&quot;&gt;&lt;font style=&quot;font-size: 38px;&quot;&gt;&lt;b&gt;&lt;font style=&quot;font-size: 38px;&quot;&gt;(top 10 codes) &lt;/font&gt;&lt;/b&gt;&lt;font style=&quot;font-size: 38px;&quot;&gt;&lt;b&gt;&lt;font style=&quot;font-size: 38px;&quot;&gt;&lt;br&gt;&lt;/font&gt;&lt;/b&gt;&lt;/font&gt;&lt;/font&gt;&lt;/p&gt;&lt;p style=&quot;line-height: 0%;&quot;&gt;&lt;b&gt;&lt;font style=&quot;font-size: 30px;&quot;&gt;&lt;br&gt;&lt;/font&gt;&lt;/b&gt;&lt;/p&gt;" style="text;html=1;strokeColor=none;fillColor=none;align=center;verticalAlign=middle;whiteSpace=wrap;rounded=0;" parent="1" vertex="1">
          <mxGeometry x="2696" y="-1023" width="396" height="147" as="geometry" />
        </mxCell>
        <mxCell id="U0XQma4ryhpkUwMsfx8T-5" value="&lt;font style=&quot;font-size: 20px;&quot; color=&quot;#ffffff&quot;&gt;&#39;J21&#39;&lt;/font&gt;" style="ellipse;whiteSpace=wrap;html=1;fillColor=#9CC7FF;flipH=1;strokeColor=#006EAF;" vertex="1" parent="1">
          <mxGeometry x="3587.5" y="835" width="100" height="100" as="geometry" />
        </mxCell>
        <mxCell id="U0XQma4ryhpkUwMsfx8T-6" value="&lt;font style=&quot;font-size: 20px;&quot; color=&quot;#ffffff&quot;&gt;&#39;Z20&#39;&lt;/font&gt;" style="ellipse;whiteSpace=wrap;html=1;fillColor=#9CC7FF;flipH=1;strokeColor=#006EAF;" vertex="1" parent="1">
          <mxGeometry x="3714.5" y="836" width="100" height="100" as="geometry" />
        </mxCell>
        <mxCell id="U0XQma4ryhpkUwMsfx8T-7" value="&lt;font style=&quot;font-size: 20px;&quot; color=&quot;#ffffff&quot;&gt;&#39;Z20&#39;&lt;/font&gt;" style="ellipse;whiteSpace=wrap;html=1;fillColor=#9CC7FF;flipH=1;strokeColor=#006EAF;" vertex="1" parent="1">
          <mxGeometry x="3841.5" y="834" width="100" height="100" as="geometry" />
        </mxCell>
        <mxCell id="U0XQma4ryhpkUwMsfx8T-13" value="" style="rhombus;whiteSpace=wrap;html=1;flipH=1;fillColor=#fff2cc;strokeColor=#d6b656;" vertex="1" parent="1">
          <mxGeometry x="3071.5" y="837" width="100" height="100" as="geometry" />
        </mxCell>
        <mxCell id="U0XQma4ryhpkUwMsfx8T-14" value="&lt;font style=&quot;font-size: 20px;&quot; color=&quot;#ffffff&quot;&gt;&#39;J21&#39;&lt;/font&gt;" style="ellipse;whiteSpace=wrap;html=1;fillColor=#9CC7FF;flipH=1;strokeColor=#006EAF;" vertex="1" parent="1">
          <mxGeometry x="3197.5" y="836" width="100" height="100" as="geometry" />
        </mxCell>
        <mxCell id="U0XQma4ryhpkUwMsfx8T-15" value="&lt;font style=&quot;font-size: 20px;&quot; color=&quot;#ffffff&quot;&gt;&#39;Z20&#39;&lt;/font&gt;" style="ellipse;whiteSpace=wrap;html=1;fillColor=#9CC7FF;flipH=1;strokeColor=#006EAF;" vertex="1" parent="1">
          <mxGeometry x="3324.5" y="837" width="100" height="100" as="geometry" />
        </mxCell>
        <mxCell id="U0XQma4ryhpkUwMsfx8T-16" value="" style="rhombus;whiteSpace=wrap;html=1;flipH=1;fillColor=#fff2cc;strokeColor=#d6b656;" vertex="1" parent="1">
          <mxGeometry x="3454.5" y="839" width="100" height="100" as="geometry" />
        </mxCell>
        <mxCell id="U0XQma4ryhpkUwMsfx8T-17" value="" style="rounded=1;whiteSpace=wrap;html=1;fillColor=none;strokeWidth=3;fontColor=#ffffff;strokeColor=#006EAF;" vertex="1" parent="1">
          <mxGeometry x="3180" y="807" width="260" height="154" as="geometry" />
        </mxCell>
        <mxCell id="U0XQma4ryhpkUwMsfx8T-20" value="&lt;font size=&quot;1&quot;&gt;&lt;b&gt;&lt;font style=&quot;font-size: 26px;&quot;&gt;Minimum of 3 visits for each patient in the dataset&lt;br&gt;&lt;/font&gt;&lt;/b&gt;&lt;/font&gt;" style="text;html=1;strokeColor=none;fillColor=none;align=center;verticalAlign=middle;whiteSpace=wrap;rounded=0;" vertex="1" parent="1">
          <mxGeometry x="2067" y="1000" width="663" height="30" as="geometry" />
        </mxCell>
        <mxCell id="U0XQma4ryhpkUwMsfx8T-22" value="&lt;b style=&quot;font-size: 26px;&quot;&gt;&lt;font style=&quot;font-size: 26px;&quot;&gt;We randomly choose a visit (≥2) from which we want to predict the codes of the next visit &lt;br&gt;&lt;/font&gt;&lt;/b&gt;" style="text;html=1;strokeColor=none;fillColor=none;align=center;verticalAlign=middle;whiteSpace=wrap;rounded=0;" vertex="1" parent="1">
          <mxGeometry x="3213" y="1010" width="628.5" height="30" as="geometry" />
        </mxCell>
        <mxCell id="U0XQma4ryhpkUwMsfx8T-23" value="&lt;font style=&quot;font-size: 20px;&quot;&gt;&#39;R50&#39;&lt;/font&gt;" style="ellipse;whiteSpace=wrap;html=1;fillColor=#d5e8d4;flipH=1;strokeColor=#82b366;fontColor=#000000;" vertex="1" parent="1">
          <mxGeometry x="2530" y="-653" width="100" height="100" as="geometry" />
        </mxCell>
        <mxCell id="U0XQma4ryhpkUwMsfx8T-24" value="&lt;font style=&quot;font-size: 20px;&quot;&gt;&#39;J21&#39;&lt;/font&gt;" style="ellipse;whiteSpace=wrap;html=1;fillColor=#d5e8d4;flipH=1;strokeColor=#82b366;fontColor=#000000;" vertex="1" parent="1">
          <mxGeometry x="2277" y="-652" width="100" height="100" as="geometry" />
        </mxCell>
        <mxCell id="U0XQma4ryhpkUwMsfx8T-25" value="&lt;font style=&quot;font-size: 20px;&quot;&gt;&#39;Z29&#39;&lt;/font&gt;" style="ellipse;whiteSpace=wrap;html=1;fillColor=#d5e8d4;flipH=1;strokeColor=#82b366;fontColor=#000000;" vertex="1" parent="1">
          <mxGeometry x="2403" y="-651" width="100" height="100" as="geometry" />
        </mxCell>
        <mxCell id="U0XQma4ryhpkUwMsfx8T-26" value="&lt;font style=&quot;font-size: 20px;&quot;&gt;&#39;J96&#39;&lt;/font&gt;" style="ellipse;whiteSpace=wrap;html=1;fillColor=#d5e8d4;flipH=1;strokeColor=#82b366;fontColor=#000000;" vertex="1" parent="1">
          <mxGeometry x="2657" y="-651" width="100" height="100" as="geometry" />
        </mxCell>
        <mxCell id="U0XQma4ryhpkUwMsfx8T-27" value="&lt;font style=&quot;font-size: 20px;&quot;&gt;&#39;J45&#39;&lt;/font&gt;" style="ellipse;whiteSpace=wrap;html=1;fillColor=#d5e8d4;flipH=1;strokeColor=#82b366;fontColor=#000000;" vertex="1" parent="1">
          <mxGeometry x="3036.5" y="-651" width="100" height="100" as="geometry" />
        </mxCell>
        <mxCell id="U0XQma4ryhpkUwMsfx8T-28" value="&lt;font style=&quot;font-size: 20px;&quot;&gt;&#39;R63&#39;&lt;/font&gt;" style="ellipse;whiteSpace=wrap;html=1;fillColor=#d5e8d4;flipH=1;strokeColor=#82b366;fontColor=#000000;" vertex="1" parent="1">
          <mxGeometry x="2783.5" y="-650" width="100" height="100" as="geometry" />
        </mxCell>
        <mxCell id="U0XQma4ryhpkUwMsfx8T-29" value="&lt;font style=&quot;font-size: 20px;&quot;&gt;&#39;J00&#39;&lt;/font&gt;" style="ellipse;whiteSpace=wrap;html=1;fillColor=#d5e8d4;flipH=1;strokeColor=#82b366;fontColor=#000000;" vertex="1" parent="1">
          <mxGeometry x="2909.5" y="-649" width="100" height="100" as="geometry" />
        </mxCell>
        <mxCell id="U0XQma4ryhpkUwMsfx8T-30" value="&lt;font style=&quot;font-size: 20px;&quot;&gt;&#39;A09&#39;&lt;/font&gt;" style="ellipse;whiteSpace=wrap;html=1;fillColor=#d5e8d4;flipH=1;strokeColor=#82b366;fontColor=#000000;" vertex="1" parent="1">
          <mxGeometry x="3163.5" y="-649" width="100" height="100" as="geometry" />
        </mxCell>
        <mxCell id="U0XQma4ryhpkUwMsfx8T-32" value="&lt;font style=&quot;font-size: 20px;&quot;&gt;&#39;B97&#39;&lt;/font&gt;" style="ellipse;whiteSpace=wrap;html=1;fillColor=#d5e8d4;flipH=1;strokeColor=#82b366;fontColor=#000000;" vertex="1" parent="1">
          <mxGeometry x="3287" y="-649" width="100" height="100" as="geometry" />
        </mxCell>
        <mxCell id="U0XQma4ryhpkUwMsfx8T-33" value="&lt;font style=&quot;font-size: 20px;&quot;&gt;&#39;H66&#39;&lt;/font&gt;" style="ellipse;whiteSpace=wrap;html=1;fillColor=#d5e8d4;flipH=1;strokeColor=#82b366;fontColor=#000000;" vertex="1" parent="1">
          <mxGeometry x="3413" y="-648" width="100" height="100" as="geometry" />
        </mxCell>
        <mxCell id="U0XQma4ryhpkUwMsfx8T-38" value="" style="endArrow=classic;html=1;rounded=0;entryX=0.5;entryY=0;entryDx=0;entryDy=0;" edge="1" parent="1" source="qL8Y19arw2ljMX_Rw4NP-1" target="U0XQma4ryhpkUwMsfx8T-28">
          <mxGeometry width="50" height="50" relative="1" as="geometry">
            <mxPoint x="2800" y="-683" as="sourcePoint" />
            <mxPoint x="2850" y="-733" as="targetPoint" />
          </mxGeometry>
        </mxCell>
        <mxCell id="U0XQma4ryhpkUwMsfx8T-40" value="" style="endArrow=classic;html=1;rounded=0;entryX=1;entryY=0;entryDx=0;entryDy=0;" edge="1" parent="1" target="U0XQma4ryhpkUwMsfx8T-23">
          <mxGeometry width="50" height="50" relative="1" as="geometry">
            <mxPoint x="2890" y="-793" as="sourcePoint" />
            <mxPoint x="2588.25" y="-653" as="targetPoint" />
          </mxGeometry>
        </mxCell>
        <mxCell id="U0XQma4ryhpkUwMsfx8T-41" value="" style="endArrow=classic;html=1;rounded=0;entryX=0.5;entryY=0;entryDx=0;entryDy=0;exitX=0.475;exitY=1.013;exitDx=0;exitDy=0;exitPerimeter=0;" edge="1" parent="1" source="qL8Y19arw2ljMX_Rw4NP-1">
          <mxGeometry width="50" height="50" relative="1" as="geometry">
            <mxPoint x="2769" y="-792" as="sourcePoint" />
            <mxPoint x="2720" y="-648" as="targetPoint" />
          </mxGeometry>
        </mxCell>
        <mxCell id="U0XQma4ryhpkUwMsfx8T-42" value="" style="endArrow=classic;html=1;rounded=0;entryX=0.5;entryY=0;entryDx=0;entryDy=0;" edge="1" parent="1">
          <mxGeometry width="50" height="50" relative="1" as="geometry">
            <mxPoint x="2890" y="-793" as="sourcePoint" />
            <mxPoint x="3080" y="-650" as="targetPoint" />
          </mxGeometry>
        </mxCell>
        <mxCell id="U0XQma4ryhpkUwMsfx8T-43" value="" style="endArrow=classic;html=1;rounded=0;entryX=0.5;entryY=0;entryDx=0;entryDy=0;" edge="1" parent="1" target="U0XQma4ryhpkUwMsfx8T-29">
          <mxGeometry width="50" height="50" relative="1" as="geometry">
            <mxPoint x="2890" y="-793" as="sourcePoint" />
            <mxPoint x="2873" y="-610" as="targetPoint" />
          </mxGeometry>
        </mxCell>
        <mxCell id="U0XQma4ryhpkUwMsfx8T-45" value="" style="endArrow=classic;html=1;rounded=0;entryX=1;entryY=0;entryDx=0;entryDy=0;exitX=0.473;exitY=0.983;exitDx=0;exitDy=0;exitPerimeter=0;" edge="1" parent="1" source="qL8Y19arw2ljMX_Rw4NP-1" target="U0XQma4ryhpkUwMsfx8T-25">
          <mxGeometry width="50" height="50" relative="1" as="geometry">
            <mxPoint x="2880" y="-793" as="sourcePoint" />
            <mxPoint x="2454" y="-649" as="targetPoint" />
          </mxGeometry>
        </mxCell>
        <mxCell id="U0XQma4ryhpkUwMsfx8T-46" value="" style="endArrow=classic;html=1;rounded=0;entryX=1;entryY=0;entryDx=0;entryDy=0;" edge="1" parent="1" source="U0XQma4ryhpkUwMsfx8T-50" target="U0XQma4ryhpkUwMsfx8T-24">
          <mxGeometry width="50" height="50" relative="1" as="geometry">
            <mxPoint x="2880" y="-793" as="sourcePoint" />
            <mxPoint x="2330" y="-653" as="targetPoint" />
          </mxGeometry>
        </mxCell>
        <mxCell id="U0XQma4ryhpkUwMsfx8T-47" value="" style="endArrow=classic;html=1;rounded=0;entryX=0;entryY=0;entryDx=0;entryDy=0;" edge="1" parent="1" target="U0XQma4ryhpkUwMsfx8T-30">
          <mxGeometry width="50" height="50" relative="1" as="geometry">
            <mxPoint x="2890" y="-793" as="sourcePoint" />
            <mxPoint x="3071.5" y="-619" as="targetPoint" />
          </mxGeometry>
        </mxCell>
        <mxCell id="U0XQma4ryhpkUwMsfx8T-48" value="" style="endArrow=classic;html=1;rounded=0;entryX=0;entryY=0;entryDx=0;entryDy=0;" edge="1" parent="1" target="U0XQma4ryhpkUwMsfx8T-32">
          <mxGeometry width="50" height="50" relative="1" as="geometry">
            <mxPoint x="2890" y="-793" as="sourcePoint" />
            <mxPoint x="3297.5" y="-635" as="targetPoint" />
          </mxGeometry>
        </mxCell>
        <mxCell id="U0XQma4ryhpkUwMsfx8T-49" value="" style="endArrow=classic;html=1;rounded=0;entryX=0;entryY=0;entryDx=0;entryDy=0;exitX=0.471;exitY=1.011;exitDx=0;exitDy=0;exitPerimeter=0;" edge="1" parent="1" source="qL8Y19arw2ljMX_Rw4NP-1" target="U0XQma4ryhpkUwMsfx8T-33">
          <mxGeometry width="50" height="50" relative="1" as="geometry">
            <mxPoint x="2880" y="-793" as="sourcePoint" />
            <mxPoint x="3218" y="-635" as="targetPoint" />
          </mxGeometry>
        </mxCell>
        <mxCell id="U0XQma4ryhpkUwMsfx8T-51" value="" style="endArrow=classic;html=1;rounded=0;entryX=1;entryY=0;entryDx=0;entryDy=0;exitX=0.475;exitY=0.993;exitDx=0;exitDy=0;exitPerimeter=0;" edge="1" parent="1" source="qL8Y19arw2ljMX_Rw4NP-1" target="U0XQma4ryhpkUwMsfx8T-50">
          <mxGeometry width="50" height="50" relative="1" as="geometry">
            <mxPoint x="2892" y="-795" as="sourcePoint" />
            <mxPoint x="2362" y="-637" as="targetPoint" />
          </mxGeometry>
        </mxCell>
        <mxCell id="U0XQma4ryhpkUwMsfx8T-50" value="" style="ellipse;whiteSpace=wrap;html=1;aspect=fixed;" vertex="1" parent="1">
          <mxGeometry x="2885" y="-798" width="10" height="10" as="geometry" />
        </mxCell>
        <mxCell id="U0XQma4ryhpkUwMsfx8T-53" value="&lt;font size=&quot;1&quot;&gt;&lt;b style=&quot;font-size: 18px;&quot;&gt;Label&lt;/b&gt;&lt;/font&gt;" style="text;html=1;strokeColor=#6c8ebf;fillColor=#dae8fc;align=center;verticalAlign=middle;whiteSpace=wrap;rounded=0;" vertex="1" parent="1">
          <mxGeometry x="3280" y="810" width="60" height="30" as="geometry" />
        </mxCell>
        <mxCell id="U0XQma4ryhpkUwMsfx8T-54" value="&lt;div style=&quot;font-size: 29px;&quot;&gt;&lt;font style=&quot;font-size: 29px;&quot;&gt;&lt;b&gt;Normalization&lt;br&gt;&lt;/b&gt;&lt;/font&gt;&lt;/div&gt;&lt;div style=&quot;font-size: 29px;&quot;&gt;&lt;font style=&quot;font-size: 29px;&quot;&gt;&lt;b&gt;nn.LogSoftmax()&lt;/b&gt;&lt;/font&gt;&lt;b&gt;&lt;font style=&quot;font-size: 29px;&quot;&gt;&lt;/font&gt;&lt;/b&gt;&lt;/div&gt;" style="rounded=1;whiteSpace=wrap;html=1;fillColor=#DAE8FC;" vertex="1" parent="1">
          <mxGeometry x="2677.38" y="-330" width="435.25" height="172" as="geometry" />
        </mxCell>
        <mxCell id="U0XQma4ryhpkUwMsfx8T-57" value="&lt;font style=&quot;font-size: 18px;&quot;&gt;E&lt;sub style=&quot;&quot;&gt;CLS&lt;/sub&gt;&lt;/font&gt;" style="shape=hexagon;perimeter=hexagonPerimeter2;whiteSpace=wrap;html=1;fixedSize=1;" vertex="1" parent="1">
          <mxGeometry x="1640" y="670" width="110" height="70" as="geometry" />
        </mxCell>
        <mxCell id="U0XQma4ryhpkUwMsfx8T-58" value="" style="shape=singleArrow;direction=north;whiteSpace=wrap;html=1;fillColor=#f5f5f5;fontColor=#333333;strokeColor=#666666;" vertex="1" parent="1">
          <mxGeometry x="1683.75" y="750" width="22.5" height="72.5" as="geometry" />
        </mxCell>
        <mxCell id="U0XQma4ryhpkUwMsfx8T-61" value="" style="shape=flexArrow;endArrow=classic;html=1;rounded=0;fillColor=default;" edge="1" parent="1">
          <mxGeometry width="50" height="50" relative="1" as="geometry">
            <mxPoint x="2893" y="-340" as="sourcePoint" />
            <mxPoint x="2893" y="-440" as="targetPoint" />
          </mxGeometry>
        </mxCell>
        <mxCell id="U0XQma4ryhpkUwMsfx8T-62" value="" style="shape=flexArrow;endArrow=classic;html=1;rounded=0;fillColor=default;" edge="1" parent="1">
          <mxGeometry width="50" height="50" relative="1" as="geometry">
            <mxPoint x="2893" as="sourcePoint" />
            <mxPoint x="2893" y="-140" as="targetPoint" />
          </mxGeometry>
        </mxCell>
        <mxCell id="U0XQma4ryhpkUwMsfx8T-63" value="" style="shape=flexArrow;endArrow=classic;html=1;rounded=0;fillColor=default;" edge="1" parent="1">
          <mxGeometry width="50" height="50" relative="1" as="geometry">
            <mxPoint x="2893" y="281" as="sourcePoint" />
            <mxPoint x="2893" y="211" as="targetPoint" />
          </mxGeometry>
        </mxCell>
        <mxCell id="U0XQma4ryhpkUwMsfx8T-65" value="&lt;font style=&quot;font-size: 18px;&quot;&gt;E&lt;sub&gt;SEP&lt;/sub&gt;&lt;/font&gt;" style="shape=hexagon;perimeter=hexagonPerimeter2;whiteSpace=wrap;html=1;fixedSize=1;" vertex="1" parent="1">
          <mxGeometry x="2271" y="670" width="110" height="70" as="geometry" />
        </mxCell>
        <mxCell id="U0XQma4ryhpkUwMsfx8T-66" value="" style="shape=singleArrow;direction=north;whiteSpace=wrap;html=1;fillColor=#f5f5f5;fontColor=#333333;strokeColor=#666666;" vertex="1" parent="1">
          <mxGeometry x="2314.75" y="750" width="22.5" height="72.5" as="geometry" />
        </mxCell>
        <mxCell id="U0XQma4ryhpkUwMsfx8T-67" value="&lt;font style=&quot;font-size: 18px;&quot;&gt;E&lt;sub&gt;SEP&lt;/sub&gt;&lt;/font&gt;" style="shape=hexagon;perimeter=hexagonPerimeter2;whiteSpace=wrap;html=1;fixedSize=1;" vertex="1" parent="1">
          <mxGeometry x="2778" y="670" width="110" height="70" as="geometry" />
        </mxCell>
        <mxCell id="U0XQma4ryhpkUwMsfx8T-68" value="" style="shape=singleArrow;direction=north;whiteSpace=wrap;html=1;fillColor=#f5f5f5;fontColor=#333333;strokeColor=#666666;" vertex="1" parent="1">
          <mxGeometry x="2821.75" y="750" width="22.5" height="72.5" as="geometry" />
        </mxCell>
        <mxCell id="U0XQma4ryhpkUwMsfx8T-69" value="" style="group" vertex="1" connectable="0" parent="1">
          <mxGeometry x="1160" y="230" width="426" height="627.5" as="geometry" />
        </mxCell>
        <mxCell id="pajMBO5-fDyzua4MGGLV-97" value="" style="group;fillColor=#e1d5e7;strokeColor=#9673a6;" parent="U0XQma4ryhpkUwMsfx8T-69" vertex="1" connectable="0">
          <mxGeometry x="319.5" y="492.43273542600895" width="71.79775280898876" height="135.06726457399103" as="geometry" />
        </mxCell>
        <mxCell id="pajMBO5-fDyzua4MGGLV-96" value="" style="endArrow=none;html=1;rounded=0;fillColor=#e1d5e7;strokeColor=#9673a6;" parent="pajMBO5-fDyzua4MGGLV-97" edge="1">
          <mxGeometry width="50" height="50" relative="1" as="geometry">
            <mxPoint x="4.2512809751938576e-15" y="66.99336322869952" as="sourcePoint" />
            <mxPoint x="71.79775280898876" y="66.756995515695" as="targetPoint" />
          </mxGeometry>
        </mxCell>
        <mxCell id="pajMBO5-fDyzua4MGGLV-100" value="" style="group;fillColor=#FFE6CC;strokeColor=#d79b00;" parent="U0XQma4ryhpkUwMsfx8T-69" vertex="1" connectable="0">
          <mxGeometry x="29.91573033707865" y="492.43273542600895" width="71.79775280898876" height="135.06726457399103" as="geometry" />
        </mxCell>
        <mxCell id="pajMBO5-fDyzua4MGGLV-101" value="" style="endArrow=none;html=1;rounded=0;fillColor=#ffe6cc;strokeColor=#d79b00;" parent="pajMBO5-fDyzua4MGGLV-100" edge="1">
          <mxGeometry width="50" height="50" relative="1" as="geometry">
            <mxPoint x="4.2512809751938576e-15" y="66.99336322869952" as="sourcePoint" />
            <mxPoint x="71.79775280898876" y="66.756995515695" as="targetPoint" />
          </mxGeometry>
        </mxCell>
        <mxCell id="pajMBO5-fDyzua4MGGLV-102" value="" style="group;fillColor=#d5e8d4;strokeColor=#82b366;" parent="U0XQma4ryhpkUwMsfx8T-69" vertex="1" connectable="0">
          <mxGeometry x="175.90449438202245" y="492.43273542600895" width="71.79775280898876" height="135.06726457399103" as="geometry" />
        </mxCell>
        <mxCell id="pajMBO5-fDyzua4MGGLV-103" value="" style="endArrow=none;html=1;rounded=0;fillColor=#d5e8d4;strokeColor=#82b366;" parent="pajMBO5-fDyzua4MGGLV-102" edge="1">
          <mxGeometry width="50" height="50" relative="1" as="geometry">
            <mxPoint x="4.2512809751938576e-15" y="66.99336322869952" as="sourcePoint" />
            <mxPoint x="71.79775280898876" y="66.756995515695" as="targetPoint" />
          </mxGeometry>
        </mxCell>
        <mxCell id="pajMBO5-fDyzua4MGGLV-110" value="" style="group" parent="U0XQma4ryhpkUwMsfx8T-69" vertex="1" connectable="0">
          <mxGeometry x="126.84269662921348" y="548.7107623318385" width="47.865168539325836" height="51.775784753363226" as="geometry" />
        </mxCell>
        <mxCell id="pajMBO5-fDyzua4MGGLV-107" value="" style="endArrow=none;html=1;rounded=0;strokeWidth=2;" parent="pajMBO5-fDyzua4MGGLV-110" edge="1">
          <mxGeometry width="50" height="50" relative="1" as="geometry">
            <mxPoint x="11.966292134831459" y="22.511210762331835" as="sourcePoint" />
            <mxPoint x="11.966292134831459" as="targetPoint" />
          </mxGeometry>
        </mxCell>
        <mxCell id="pajMBO5-fDyzua4MGGLV-109" value="" style="endArrow=none;html=1;rounded=0;strokeWidth=2;" parent="pajMBO5-fDyzua4MGGLV-110" edge="1">
          <mxGeometry width="50" height="50" relative="1" as="geometry">
            <mxPoint x="23.932584269662918" y="11.604529147982001" as="sourcePoint" />
            <mxPoint y="11.604529147982001" as="targetPoint" />
          </mxGeometry>
        </mxCell>
        <mxCell id="pajMBO5-fDyzua4MGGLV-118" value="" style="group" parent="U0XQma4ryhpkUwMsfx8T-69" vertex="1" connectable="0">
          <mxGeometry x="270.438202247191" y="548.7107623318385" width="23.932584269662918" height="22.511210762331835" as="geometry" />
        </mxCell>
        <mxCell id="pajMBO5-fDyzua4MGGLV-119" value="" style="endArrow=none;html=1;rounded=0;strokeWidth=2;" parent="pajMBO5-fDyzua4MGGLV-118" edge="1">
          <mxGeometry width="50" height="50" relative="1" as="geometry">
            <mxPoint x="11.966292134831459" y="22.511210762331835" as="sourcePoint" />
            <mxPoint x="11.966292134831459" as="targetPoint" />
          </mxGeometry>
        </mxCell>
        <mxCell id="pajMBO5-fDyzua4MGGLV-120" value="" style="endArrow=none;html=1;rounded=0;strokeWidth=2;" parent="pajMBO5-fDyzua4MGGLV-118" edge="1">
          <mxGeometry width="50" height="50" relative="1" as="geometry">
            <mxPoint x="23.932584269662918" y="11.604529147982001" as="sourcePoint" />
            <mxPoint y="11.604529147982001" as="targetPoint" />
          </mxGeometry>
        </mxCell>
        <mxCell id="pajMBO5-fDyzua4MGGLV-185" value="&lt;div style=&quot;font-size: 20px;&quot;&gt;&lt;font style=&quot;font-size: 20px;&quot;&gt;&lt;b style=&quot;font-size: 20px;&quot;&gt;Age&lt;/b&gt;&lt;/font&gt;&lt;/div&gt;&lt;div style=&quot;font-size: 20px;&quot;&gt;&lt;font style=&quot;font-size: 20px;&quot;&gt;&lt;b style=&quot;font-size: 20px;&quot;&gt;Embedding&lt;br style=&quot;font-size: 20px;&quot;&gt;&lt;/b&gt;&lt;/font&gt;&lt;/div&gt;" style="text;html=1;align=center;verticalAlign=middle;resizable=0;points=[];autosize=1;strokeColor=none;fillColor=none;fontSize=20;" parent="U0XQma4ryhpkUwMsfx8T-69" vertex="1">
          <mxGeometry x="-10" y="422.7130044843049" width="130" height="60" as="geometry" />
        </mxCell>
        <mxCell id="pajMBO5-fDyzua4MGGLV-186" value="&lt;div style=&quot;font-size: 20px;&quot;&gt;&lt;font style=&quot;font-size: 20px;&quot;&gt;&lt;b style=&quot;font-size: 20px;&quot;&gt;Positional &lt;br style=&quot;font-size: 20px;&quot;&gt;&lt;/b&gt;&lt;/font&gt;&lt;/div&gt;&lt;div style=&quot;font-size: 20px;&quot;&gt;&lt;font style=&quot;font-size: 20px;&quot;&gt;&lt;b style=&quot;font-size: 20px;&quot;&gt;Embedding&lt;br style=&quot;font-size: 20px;&quot;&gt;&lt;/b&gt;&lt;/font&gt;&lt;/div&gt;" style="text;html=1;align=center;verticalAlign=middle;resizable=0;points=[];autosize=1;strokeColor=none;fillColor=none;fontSize=20;" parent="U0XQma4ryhpkUwMsfx8T-69" vertex="1">
          <mxGeometry x="135.98876404494382" y="422.7130044843049" width="130" height="60" as="geometry" />
        </mxCell>
        <mxCell id="pajMBO5-fDyzua4MGGLV-187" value="&lt;div style=&quot;font-size: 20px;&quot;&gt;&lt;font style=&quot;font-size: 20px;&quot;&gt;&lt;b style=&quot;font-size: 20px;&quot;&gt;Diagnostic &lt;br style=&quot;font-size: 20px;&quot;&gt;&lt;/b&gt;&lt;/font&gt;&lt;/div&gt;&lt;div style=&quot;font-size: 20px;&quot;&gt;&lt;font style=&quot;font-size: 20px;&quot;&gt;&lt;b style=&quot;font-size: 20px;&quot;&gt;Embedding&lt;br style=&quot;font-size: 20px;&quot;&gt;&lt;/b&gt;&lt;/font&gt;&lt;/div&gt;" style="text;html=1;align=center;verticalAlign=middle;resizable=0;points=[];autosize=1;strokeColor=none;fillColor=none;fontSize=20;" parent="U0XQma4ryhpkUwMsfx8T-69" vertex="1">
          <mxGeometry x="279.5842696629213" y="422.7130044843049" width="130" height="60" as="geometry" />
        </mxCell>
        <mxCell id="U0XQma4ryhpkUwMsfx8T-70" value="" style="group;fontSize=22;" vertex="1" connectable="0" parent="1">
          <mxGeometry x="1630" y="-60" width="350" height="340" as="geometry" />
        </mxCell>
        <mxCell id="U0XQma4ryhpkUwMsfx8T-75" value="" style="rhombus;whiteSpace=wrap;html=1;flipH=1;direction=north;fillColor=#fff2cc;strokeColor=#d6b656;flipV=1;fontSize=22;" vertex="1" parent="U0XQma4ryhpkUwMsfx8T-70">
          <mxGeometry x="10" y="166" width="74.84" height="73.02" as="geometry" />
        </mxCell>
        <mxCell id="U0XQma4ryhpkUwMsfx8T-76" value="&lt;div style=&quot;font-size: 22px;&quot;&gt;&lt;b style=&quot;font-size: 22px;&quot;&gt;&lt;font style=&quot;font-size: 22px;&quot;&gt;Separator of visits &lt;br style=&quot;font-size: 22px;&quot;&gt;&lt;/font&gt;&lt;/b&gt;&lt;/div&gt;&lt;div style=&quot;font-size: 22px;&quot;&gt;&lt;b style=&quot;font-size: 22px;&quot;&gt;&lt;font style=&quot;font-size: 22px;&quot;&gt;(&#39;SEP&#39; in BERT)&lt;/font&gt;&lt;/b&gt;&lt;/div&gt;" style="text;html=1;strokeColor=none;fillColor=none;align=center;verticalAlign=middle;whiteSpace=wrap;rounded=0;fontSize=22;flipH=0;flipV=0;" vertex="1" parent="U0XQma4ryhpkUwMsfx8T-70">
          <mxGeometry x="110" y="194.43" width="204" height="33.44" as="geometry" />
        </mxCell>
        <mxCell id="U0XQma4ryhpkUwMsfx8T-77" value="E&lt;sub style=&quot;font-size: 22px;&quot;&gt;i&lt;/sub&gt;" style="shape=hexagon;perimeter=hexagonPerimeter2;whiteSpace=wrap;html=1;fixedSize=1;fontSize=22;flipH=1;flipV=1;" vertex="1" parent="U0XQma4ryhpkUwMsfx8T-70">
          <mxGeometry y="260" width="97.34" height="59.9" as="geometry" />
        </mxCell>
        <mxCell id="U0XQma4ryhpkUwMsfx8T-78" value="&lt;b style=&quot;font-size: 22px;&quot;&gt;&lt;font style=&quot;font-size: 22px;&quot;&gt;Embeddings associated with the i&lt;sup style=&quot;font-size: 22px;&quot;&gt;th&lt;/sup&gt; code of the patient &lt;/font&gt;&lt;/b&gt;" style="text;html=1;strokeColor=none;fillColor=none;align=center;verticalAlign=middle;whiteSpace=wrap;rounded=0;fontSize=22;flipV=0;flipH=0;" vertex="1" parent="U0XQma4ryhpkUwMsfx8T-70">
          <mxGeometry x="110" y="280.89" width="234" height="33.44" as="geometry" />
        </mxCell>
        <mxCell id="U0XQma4ryhpkUwMsfx8T-71" value="" style="ellipse;whiteSpace=wrap;html=1;fillColor=#9CC7FF;flipH=1;strokeColor=#006EAF;fontColor=#ffffff;flipV=1;fontSize=22;" vertex="1" parent="1">
          <mxGeometry x="2020" y="121.37" width="59.48" height="59.18" as="geometry" />
        </mxCell>
        <mxCell id="U0XQma4ryhpkUwMsfx8T-72" value="&lt;b style=&quot;font-size: 22px;&quot;&gt;&lt;font style=&quot;font-size: 22px;&quot;&gt;Diagnostic code&lt;/font&gt;&lt;/b&gt;" style="text;whiteSpace=wrap;html=1;fontSize=22;flipH=0;flipV=0;" vertex="1" parent="1">
          <mxGeometry x="2110" y="133.65" width="174" height="31.21" as="geometry" />
        </mxCell>
        <mxCell id="U0XQma4ryhpkUwMsfx8T-73" value="" style="whiteSpace=wrap;html=1;aspect=fixed;direction=east;flipH=1;flipV=1;strokeColor=#d6b656;fillColor=#fff2cc;fontSize=22;" vertex="1" parent="1">
          <mxGeometry x="2020" y="206.64" width="53.26" height="53.26" as="geometry" />
        </mxCell>
        <mxCell id="U0XQma4ryhpkUwMsfx8T-74" value="&lt;b style=&quot;font-size: 22px;&quot;&gt;&lt;font style=&quot;font-size: 22px;&quot;&gt;&amp;nbsp; Sequence beginner (&#39;CLS&#39; in BERT)&lt;font style=&quot;font-size: 22px;&quot;&gt;&lt;br style=&quot;font-size: 22px;&quot;&gt;&lt;/font&gt;&lt;/font&gt;&lt;/b&gt;" style="text;html=1;strokeColor=none;fillColor=none;align=center;verticalAlign=middle;whiteSpace=wrap;rounded=0;fontSize=22;flipH=0;flipV=0;" vertex="1" parent="1">
          <mxGeometry x="2110" y="224.67000000000002" width="220" height="33.44" as="geometry" />
        </mxCell>
        <mxCell id="U0XQma4ryhpkUwMsfx8T-83" value="" style="verticalLabelPosition=bottom;verticalAlign=top;html=1;shape=mxgraph.basic.diag_round_rect;dx=6;whiteSpace=wrap;fillColor=#f8cecc;strokeColor=#b85450;" vertex="1" parent="1">
          <mxGeometry x="3980" y="605.75" width="170" height="64.25" as="geometry" />
        </mxCell>
        <mxCell id="U0XQma4ryhpkUwMsfx8T-86" value="&lt;b style=&quot;font-size: 18px;&quot;&gt;Visits that we won&#39;t give to the model&lt;br style=&quot;font-size: 18px;&quot;&gt;&lt;/b&gt;" style="text;html=1;strokeColor=none;fillColor=none;align=center;verticalAlign=middle;whiteSpace=wrap;rounded=0;fontSize=18;" vertex="1" parent="1">
          <mxGeometry x="4160" y="622.88" width="330" height="30" as="geometry" />
        </mxCell>
      </root>
    </mxGraphModel>
  </diagram>
</mxfile>
